<svg xmlns="http://www.w3.org/2000/svg" width="500" height="500" viewBox="0 0 500 500">
  <defs>
    <clipPath id="a" clipPathUnits="userSpaceOnUse">
      <path d="M-69.52 294.177h478v-503.975h-478Z"/>
    </clipPath>
    <clipPath id="b" clipPathUnits="userSpaceOnUse">
      <path d="M-188.815 40.018h478v-503.975h-478Z"/>
    </clipPath>
    <clipPath id="c" clipPathUnits="userSpaceOnUse">
      <path d="M-274.635 468.07h478V-35.905h-478Z"/>
    </clipPath>
    <clipPath id="d" clipPathUnits="userSpaceOnUse">
      <path d="M-262.092 337.2h478v-503.976h-478Z"/>
    </clipPath>
    <clipPath id="e" clipPathUnits="userSpaceOnUse">
      <path d="M-371.668 270.915h478V-233.06h-478Z"/>
    </clipPath>
    <clipPath id="f" clipPathUnits="userSpaceOnUse">
      <path d="M-379.664 37.392h478v-503.975h-478Z"/>
    </clipPath>
    <clipPath id="g" clipPathUnits="userSpaceOnUse">
      <path d="M-384.336 66.656h478V-437.32h-478Z"/>
    </clipPath>
    <clipPath id="h" clipPathUnits="userSpaceOnUse">
      <path d="M-400.86 55.99h478v-503.976h-478Z"/>
    </clipPath>
  </defs>
  <path d="M762.461 1272.17h500v500h-500z" style="fill:none;fill-opacity:1;stroke-width:.14388" transform="translate(-762.461 -1272.17)"/>
  <path d="M218.074 282.829s1.58-21.839 2.649-55.411c-21.633 7.41-58.368 9.756-84.052 7.434C26.13 224.862-51.158 124.358-33.173 10.107c17.61-111.855 119.42-183.475 229.193-167.168 67.067 9.959 127.494 57.652 148.048 108.886-36.057-54.217-79.566-81.808-135.4-91.75C134.444-150.66 62.065-116.587 23.553-56.08c32.787-10.89 78.71-10.643 130.642-1.802 1.95-.89 3.865-1.461 5.638-1.487-5.68-1.836.084-5.91 3.759-9.615 4.459-4.492 7.343-8.86 7.343-8.86s.453-3.214 6.341 2.041c4.897 4.36 1.655 7.628.42 8.608 2.337-1.643 14.628-9.66 41.35-16.944h-.013c22.077-6.016 49.235-6.845 80.646 7.799 61.914 28.86 67.304 76.01 71.354 90.753 3.323 12.1 11.405 20.583 9.914 25.875-.736 2.25-1.876 4.728-4.566 5.781-8.232 3.222-54.388-24.314-73.27-40.05-17.635-14.695-32.772-37.607-42.49-35.172-9.72 2.425-17.858-.675-17.749-2.592 0 0 3.701-3.867.132-6.234-29.537-20.814-65.84-16.534-73.642-14.483-5.394 1.418-8.484 4.894-19.318 9.438-11.89 4.985-21.679 7.42-26.595 4.888-2.186-2.59 12.261-6.895 17.59-10.916 3.271-2.468 7.61-5.99 11.896-8.215C79.606-62.915 18.91-45.564 3.58-13.103A184 184 0 0 0 0 0c-3.57 39.633 55.868 98.518 165.453 126.405 19.275 4.904 37.87 7.904 55.932 9.875-1.146-59.69-5.87-126.528-18.89-177.695 36.5 5.642 59.78 23.246 89.136 60.208 0 0 13.12 113.04-73.557 264.036m-30.093-55.623c13.125-.023 23.939-.989 32.816-2.171.751-24.528 1.212-54.996.608-87.654-24.551-1.046-50.375-3.6-79.204-10.66C74.672 110.185 22.398 81.917-5.347 51.239c1.238 87.172 55.631 159.51 146.644 172.487 18.122 2.584 33.558 3.504 46.684 3.48" clip-path="url(#a)" style="fill:#253340;fill-opacity:1;fill-rule:nonzero;stroke:none" transform="matrix(1.034 0 0 -1.034 71.473 292.41)"/>
  <path d="m0 0-19.424 26.945-3.81-33.069 10.094 8.602z" clip-path="url(#b)" style="fill:#253340;fill-opacity:1;fill-rule:nonzero;stroke:none" transform="matrix(1.034 0 0 -1.034 194.809 29.642)"/>
  <path d="m0 0 19.412-26.894 3.823 32.885L13.12-2.424Z" clip-path="url(#c)" style="fill:#253340;fill-opacity:1;fill-rule:nonzero;stroke:none" transform="matrix(1.034 0 0 -1.034 283.536 472.195)"/>
  <path d="M0 0s-14.414.216-21.936 3.323c-6.599 2.725-13.448 8.87-29.335 13.901 0 0 60.536 87.708 64.471 115.506C24.255 95.356 0 0 0 0" clip-path="url(#d)" style="fill:#253340;fill-opacity:1;fill-rule:nonzero;stroke:none" transform="matrix(1.034 0 0 -1.034 270.568 336.89)"/>
  <path d="M0 0c24.4 18.27 51.053 20.467 63.273 38.09 0 0-16.968 95.352-103.617 150.826C-6.634 107.739 4.371 48.557 0 0" clip-path="url(#e)" style="fill:#253340;fill-opacity:1;fill-rule:nonzero;stroke:none" transform="matrix(1.034 0 0 -1.034 383.857 268.361)"/>
  <path d="m0 0 14.22-3.059L0-6.109-3.055-20.34-6.11-6.109l-14.229 3.05L-6.11 0l3.055 14.216Z" clip-path="url(#f)" style="fill:#253340;fill-opacity:1;fill-rule:nonzero;stroke:none" transform="matrix(1.034 0 0 -1.034 392.124 26.927)"/>
  <path d="m0 0 3.29-.707L0-1.414-.711-4.71l-.702 3.296-3.301.707L-1.413 0l.702 3.294Z" clip-path="url(#g)" style="fill:#253340;fill-opacity:1;fill-rule:nonzero;stroke:none" transform="matrix(1.034 0 0 -1.034 396.954 57.181)"/>
  <path d="m0 0 7.286-1.566L0-3.133l-1.568-7.291-1.566 7.291-7.294 1.567L-3.134 0l1.566 7.286z" clip-path="url(#h)" style="fill:#253340;fill-opacity:1;fill-rule:nonzero;stroke:none" transform="matrix(1.034 0 0 -1.034 414.038 46.154)"/>
</svg>
